<?xml version="1.0" encoding="UTF-8" standalone="no"?><!DOCTYPE svg PUBLIC "-//W3C//DTD SVG 1.1//EN" "http://www.w3.org/Graphics/SVG/1.1/DTD/svg11.dtd"><svg width="100%" height="100%" viewBox="0 0 1917 417" version="1.1" xmlns="http://www.w3.org/2000/svg" xmlns:xlink="http://www.w3.org/1999/xlink" xml:space="preserve" xmlns:serif="http://www.serif.com/" style="fill-rule:evenodd;clip-rule:evenodd;stroke-miterlimit:10;"><rect id="logo-horizontal-text" x="0" y="0" width="1916.67" height="416.667" style="fill:none;"/><clipPath id="_clip1"><rect x="0" y="0" width="1916.67" height="416.667"/></clipPath><g clip-path="url(#_clip1)"><g id="text"><path id="_-Syncthing-" serif:id="(Syncthing)" d="M646.61,156.495c-2,-2.2 -4.9,-4.55 -8.7,-7.05c-3.8,-2.5 -8.25,-4.85 -13.35,-7.05c-5.1,-2.2 -10.7,-4 -16.8,-5.4c-6.1,-1.4 -12.35,-2.1 -18.75,-2.1c-14.2,0 -24.65,2.6 -31.35,7.8c-6.7,5.2 -10.05,12.4 -10.05,21.6c0,5.2 1.05,9.45 3.15,12.75c2.1,3.3 5.35,6.2 9.75,8.7c4.4,2.5 9.9,4.7 16.5,6.6c6.6,1.9 14.3,3.95 23.1,6.15c10.8,2.6 20.55,5.5 29.25,8.7c8.7,3.2 16.05,7.1 22.05,11.7c6,4.6 10.65,10.25 13.95,16.95c3.3,6.7 4.95,14.85 4.95,24.45c0,10.8 -2.05,20.1 -6.15,27.9c-4.1,7.8 -9.7,14.15 -16.8,19.05c-7.1,4.9 -15.35,8.5 -24.75,10.8c-9.4,2.3 -19.5,3.45 -30.3,3.45c-16.2,0 -31.85,-2.45 -46.95,-7.35c-15.1,-4.9 -28.75,-12.05 -40.95,-21.45l15.3,-28.8c2.6,2.6 6.35,5.5 11.25,8.7c4.9,3.2 10.6,6.15 17.1,8.85c6.5,2.7 13.55,5 21.15,6.9c7.6,1.9 15.5,2.85 23.7,2.85c13.2,0 23.4,-2.3 30.6,-6.9c7.2,-4.6 10.8,-11.4 10.8,-20.4c0,-5.4 -1.35,-9.9 -4.05,-13.5c-2.7,-3.6 -6.55,-6.75 -11.55,-9.45c-5,-2.7 -11.1,-5.15 -18.3,-7.35c-7.2,-2.2 -15.4,-4.5 -24.6,-6.9c-10.6,-2.8 -19.85,-5.75 -27.75,-8.85c-7.9,-3.1 -14.45,-6.85 -19.65,-11.25c-5.2,-4.4 -9.15,-9.55 -11.85,-15.45c-2.7,-5.9 -4.05,-13.05 -4.05,-21.45c0,-10.4 2,-19.65 6,-27.75c4,-8.1 9.45,-14.9 16.35,-20.4c6.9,-5.5 15.05,-9.65 24.45,-12.45c9.4,-2.8 19.6,-4.2 30.6,-4.2c14.4,0 27.7,2.3 39.9,6.9c12.2,4.6 22.9,10.3 32.1,17.1l-15.3,27.6Z" style="fill:#0891d1;fill-rule:nonzero;"/><path d="M699.71,356.295c3,0.6 5.95,1.1 8.85,1.5c2.9,0.4 5.25,0.6 7.05,0.6c2.6,0 4.85,-0.55 6.75,-1.65c1.9,-1.1 3.85,-3.05 5.85,-5.85c2,-2.8 4.05,-6.75 6.15,-11.85c2.1,-5.1 4.55,-11.65 7.35,-19.65l-64.5,-156.9l33.9,0l48.6,127.8l43.2,-127.8l31.2,0l-71.1,193.2c-3.2,9 -8.75,16.55 -16.65,22.65c-7.9,6.1 -18.05,9.15 -30.45,9.15c-2.4,0 -4.9,-0.15 -7.5,-0.45c-2.6,-0.3 -5.5,-0.95 -8.7,-1.95l0,-28.8Z" style="fill:#0891d1;fill-rule:nonzero;"/><path d="M999.11,319.395l-33,0l0,-87.9c0,-14.8 -2.35,-25.55 -7.05,-32.25c-4.7,-6.7 -11.65,-10.05 -20.85,-10.05c-4.8,0 -9.6,0.9 -14.4,2.7c-4.8,1.8 -9.3,4.35 -13.5,7.65c-4.2,3.3 -7.95,7.2 -11.25,11.7c-3.3,4.5 -5.85,9.45 -7.65,14.85l0,93.3l-33,0l0,-156.9l30,0l0,31.5c6,-10.6 14.7,-18.95 26.1,-25.05c11.4,-6.1 24,-9.15 37.8,-9.15c9.4,0 17.1,1.7 23.1,5.1c6,3.4 10.75,8.05 14.25,13.95c3.5,5.9 5.95,12.7 7.35,20.4c1.4,7.7 2.1,15.85 2.1,24.45l0,95.7Z" style="fill:#0891d1;fill-rule:nonzero;"/><path d="M1027.31,240.795c0,-11 1.9,-21.4 5.7,-31.2c3.8,-9.8 9.25,-18.4 16.35,-25.8c7.1,-7.4 15.65,-13.25 25.65,-17.55c10,-4.3 21.2,-6.45 33.6,-6.45c16.2,0 30.15,3.55 41.85,10.65c11.7,7.1 20.45,16.55 26.25,28.35l-32.1,10.2c-3.8,-6.6 -8.9,-11.75 -15.3,-15.45c-6.4,-3.7 -13.5,-5.55 -21.3,-5.55c-6.6,0 -12.75,1.3 -18.45,3.9c-5.7,2.6 -10.65,6.25 -14.85,10.95c-4.2,4.7 -7.5,10.25 -9.9,16.65c-2.4,6.4 -3.6,13.5 -3.6,21.3c0,7.6 1.25,14.65 3.75,21.15c2.5,6.5 5.9,12.15 10.2,16.95c4.3,4.8 9.3,8.55 15,11.25c5.7,2.7 11.75,4.05 18.15,4.05c4,0 8,-0.55 12,-1.65c4,-1.1 7.65,-2.65 10.95,-4.65c3.3,-2 6.2,-4.3 8.7,-6.9c2.5,-2.6 4.35,-5.4 5.55,-8.4l32.4,9.6c-5.2,11.8 -13.9,21.45 -26.1,28.95c-12.2,7.5 -26.6,11.25 -43.2,11.25c-12.2,0 -23.3,-2.2 -33.3,-6.6c-10,-4.4 -18.55,-10.35 -25.65,-17.85c-7.1,-7.5 -12.6,-16.15 -16.5,-25.95c-3.9,-9.8 -5.85,-20.2 -5.85,-31.2Z" style="fill:#0891d1;fill-rule:nonzero;"/><path d="M1292.51,311.295c-4.2,2 -10,4.25 -17.4,6.75c-7.4,2.5 -15.3,3.75 -23.7,3.75c-5.2,0 -10.1,-0.7 -14.7,-2.1c-4.6,-1.4 -8.65,-3.5 -12.15,-6.3c-3.5,-2.8 -6.25,-6.45 -8.25,-10.95c-2,-4.5 -3,-9.95 -3,-16.35l0,-98.1l-20.7,0l0,-25.5l20.7,0l0,-51.6l33,0l0,51.6l34.2,0l0,25.5l-34.2,0l0,87.6c0.4,5.6 2.15,9.65 5.25,12.15c3.1,2.5 6.95,3.75 11.55,3.75c4.6,0 9,-0.8 13.2,-2.4c4.2,-1.6 7.3,-2.9 9.3,-3.9l6.9,26.1Z" style="fill:#0891d1;fill-rule:nonzero;"/><path d="M1456.01,319.395l-33,0l0,-87.9c0,-14.4 -2.55,-25.05 -7.65,-31.95c-5.1,-6.9 -12.45,-10.35 -22.05,-10.35c-4.6,0 -9.2,0.9 -13.8,2.7c-4.6,1.8 -8.95,4.35 -13.05,7.65c-4.1,3.3 -7.75,7.2 -10.95,11.7c-3.2,4.5 -5.6,9.45 -7.2,14.85l0,93.3l-33,0l0,-219l33,0l0,93.6c6,-10.8 14.15,-19.2 24.45,-25.2c10.3,-6 21.55,-9 33.75,-9c9.8,0 17.85,1.75 24.15,5.25c6.3,3.5 11.35,8.15 15.15,13.95c3.8,5.8 6.45,12.55 7.95,20.25c1.5,7.7 2.25,15.85 2.25,24.45l0,95.7Z" style="fill:#0891d1;fill-rule:nonzero;"/><path d="M1494.41,319.395l0,-156.9l33,0l0,156.9l-33,0Zm0,-182.7l0,-36.3l33,0l0,36.3l-33,0Z" style="fill:#0891d1;fill-rule:nonzero;"/><path d="M1707.71,319.395l-33,0l0,-87.9c0,-14.8 -2.35,-25.55 -7.05,-32.25c-4.7,-6.7 -11.65,-10.05 -20.85,-10.05c-4.8,0 -9.6,0.9 -14.4,2.7c-4.8,1.8 -9.3,4.35 -13.5,7.65c-4.2,3.3 -7.95,7.2 -11.25,11.7c-3.3,4.5 -5.85,9.45 -7.65,14.85l0,93.3l-33,0l0,-156.9l30,0l0,31.5c6,-10.6 14.7,-18.95 26.1,-25.05c11.4,-6.1 24,-9.15 37.8,-9.15c9.4,0 17.1,1.7 23.1,5.1c6,3.4 10.75,8.05 14.25,13.95c3.5,5.9 5.95,12.7 7.35,20.4c1.4,7.7 2.1,15.85 2.1,24.45l0,95.7Z" style="fill:#0891d1;fill-rule:nonzero;"/><path d="M1808.21,320.895c-10.6,0 -20.3,-2.15 -29.1,-6.45c-8.8,-4.3 -16.35,-10.15 -22.65,-17.55c-6.3,-7.4 -11.2,-15.9 -14.7,-25.5c-3.5,-9.6 -5.25,-19.7 -5.25,-30.3c0,-11.2 1.8,-21.75 5.4,-31.65c3.6,-9.9 8.6,-18.5 15,-25.8c6.4,-7.3 14.05,-13.1 22.95,-17.4c8.9,-4.3 18.75,-6.45 29.55,-6.45c12.6,0 23.65,3 33.15,9c9.5,6 17.35,13.8 23.55,23.4l0,-29.7l29.1,0l0,152.4c0,11.4 -2.1,21.5 -6.3,30.3c-4.2,8.8 -10.05,16.25 -17.55,22.35c-7.5,6.1 -16.35,10.75 -26.55,13.95c-10.2,3.2 -21.2,4.8 -33,4.8c-17.4,0 -31.85,-2.95 -43.35,-8.85c-11.5,-5.9 -21.15,-14.15 -28.95,-24.75l18.6,-17.4c6,8.4 13.75,14.8 23.25,19.2c9.5,4.4 19.65,6.6 30.45,6.6c6.8,0 13.25,-0.9 19.35,-2.7c6.1,-1.8 11.45,-4.6 16.05,-8.4c4.6,-3.8 8.25,-8.6 10.95,-14.4c2.7,-5.8 4.05,-12.7 4.05,-20.7l0,-24c-5.6,9.6 -13.3,17 -23.1,22.2c-9.8,5.2 -20.1,7.8 -30.9,7.8Zm10.8,-26.7c5,0 9.8,-0.85 14.4,-2.55c4.6,-1.7 8.85,-4 12.75,-6.9c3.9,-2.9 7.25,-6.2 10.05,-9.9c2.8,-3.7 4.8,-7.65 6,-11.85l0,-41.1c-2,-5 -4.6,-9.55 -7.8,-13.65c-3.2,-4.1 -6.85,-7.65 -10.95,-10.65c-4.1,-3 -8.45,-5.35 -13.05,-7.05c-4.6,-1.7 -9.2,-2.55 -13.8,-2.55c-7.2,0 -13.65,1.55 -19.35,4.65c-5.7,3.1 -10.55,7.2 -14.55,12.3c-4,5.1 -7.1,10.85 -9.3,17.25c-2.2,6.4 -3.3,13 -3.3,19.8c0,7.2 1.25,13.95 3.75,20.25c2.5,6.3 5.95,11.8 10.35,16.5c4.4,4.7 9.55,8.45 15.45,11.25c5.9,2.8 12.35,4.2 19.35,4.2Z" style="fill:#0891d1;fill-rule:nonzero;"/></g><g id="logo"><g><path d="M382.612,84.838c-24.55,-0.005 -44.462,19.902 -44.473,44.465c-0.006,24.546 19.926,44.47 44.473,44.465c24.558,0.013 44.471,-19.905 44.471,-44.47c-0.007,-24.556 -19.914,-44.468 -44.471,-44.46" style="fill:#0891d1;fill-rule:nonzero;"/><path d="M260.929,186.132c-24.541,-0.01 -44.456,19.906 -44.465,44.465c-0.015,24.55 19.91,44.477 44.465,44.465c24.563,0.012 44.481,-19.907 44.479,-44.468c-0.007,-24.552 -19.913,-44.472 -44.479,-44.462" style="fill:#0891d1;fill-rule:nonzero;"/><path d="M54.889,205.311c-24.539,0.008 -44.454,19.905 -44.472,44.477c0.013,24.548 19.907,44.476 44.472,44.464c24.567,0.021 44.484,-19.912 44.472,-44.477c-0.001,-24.566 -19.907,-44.476 -44.472,-44.464" style="fill:#0891d1;fill-rule:nonzero;"/><path d="M337.894,296.843c-24.553,-0.011 -44.455,19.918 -44.472,44.452c0,24.562 19.92,44.484 44.472,44.48c24.548,0.002 44.461,-19.908 44.472,-44.461c-0.005,-24.567 -19.91,-44.481 -44.472,-44.471" style="fill:#0891d1;fill-rule:nonzero;"/></g><g><path d="M401.711,207.429c0,-97.434 -79.104,-176.538 -176.538,-176.538c-97.434,0 -176.538,79.104 -176.538,176.538c0,97.434 79.104,176.539 176.538,176.539c97.434,0 176.538,-79.105 176.538,-176.539Z" style="fill:none;stroke:#0891d1;stroke-width:33.33px;"/><path d="M382.516,130.211l-121.575,101.243" style="fill:none;fill-rule:nonzero;stroke:#0891d1;stroke-width:33.33px;"/><path d="M337.822,342.093l-76.884,-110.638" style="fill:none;fill-rule:nonzero;stroke:#0891d1;stroke-width:33.33px;"/><path d="M54.984,250.614l205.954,-19.159" style="fill:none;fill-rule:nonzero;stroke:#0891d1;stroke-width:33.33px;"/></g></g></g></svg>