<?xml version="1.0" encoding="UTF-8" standalone="no"?><!DOCTYPE svg PUBLIC "-//W3C//DTD SVG 1.1//EN" "http://www.w3.org/Graphics/SVG/1.1/DTD/svg11.dtd"><svg width="100%" height="100%" viewBox="0 0 438 438" version="1.1" xmlns="http://www.w3.org/2000/svg" xmlns:xlink="http://www.w3.org/1999/xlink" xml:space="preserve" xmlns:serif="http://www.serif.com/" style="fill-rule:evenodd;clip-rule:evenodd;stroke-miterlimit:10;"><rect id="logo-only" x="0" y="0" width="437.5" height="437.5" style="fill:none;"/><clipPath id="_clip1"><rect x="0" y="0" width="437.5" height="437.5"/></clipPath><g clip-path="url(#_clip1)"><g id="logo"><g><path d="M382.612,95.255c-24.55,-0.005 -44.462,19.902 -44.473,44.465c-0.006,24.546 19.926,44.469 44.473,44.465c24.558,0.012 44.471,-19.905 44.471,-44.47c-0.007,-24.557 -19.914,-44.468 -44.471,-44.46" style="fill:#0891d1;fill-rule:nonzero;"/><path d="M260.929,196.549c-24.541,-0.01 -44.456,19.906 -44.465,44.465c-0.015,24.549 19.91,44.476 44.465,44.465c24.563,0.012 44.481,-19.908 44.479,-44.468c-0.007,-24.552 -19.913,-44.472 -44.479,-44.462" style="fill:#0891d1;fill-rule:nonzero;"/><path d="M54.889,215.728c-24.539,0.008 -44.454,19.905 -44.472,44.477c0.013,24.547 19.907,44.476 44.472,44.463c24.567,0.021 44.484,-19.912 44.472,-44.477c-0.001,-24.566 -19.907,-44.476 -44.472,-44.463" style="fill:#0891d1;fill-rule:nonzero;"/><path d="M337.894,307.259c-24.553,-0.01 -44.455,19.918 -44.472,44.452c0,24.563 19.92,44.485 44.472,44.481c24.548,0.001 44.461,-19.908 44.472,-44.462c-0.005,-24.567 -19.91,-44.481 -44.472,-44.471" style="fill:#0891d1;fill-rule:nonzero;"/></g><g><path d="M401.711,217.846c0,-97.434 -79.104,-176.538 -176.538,-176.538c-97.434,0 -176.538,79.104 -176.538,176.538c0,97.434 79.104,176.538 176.538,176.538c97.434,0 176.538,-79.104 176.538,-176.538Z" style="fill:none;stroke:#0891d1;stroke-width:33.33px;"/><path d="M382.516,140.628l-121.575,101.243" style="fill:none;fill-rule:nonzero;stroke:#0891d1;stroke-width:33.33px;"/><path d="M337.822,352.51l-76.884,-110.638" style="fill:none;fill-rule:nonzero;stroke:#0891d1;stroke-width:33.33px;"/><path d="M54.984,261.031l205.954,-19.159" style="fill:none;fill-rule:nonzero;stroke:#0891d1;stroke-width:33.33px;"/></g></g></g></svg>