<?xml version="1.0" encoding="UTF-8" standalone="no"?><!DOCTYPE svg PUBLIC "-//W3C//DTD SVG 1.1//EN" "http://www.w3.org/Graphics/SVG/1.1/DTD/svg11.dtd"><svg width="100%" height="100%" viewBox="0 0 438 438" version="1.1" xmlns="http://www.w3.org/2000/svg" xmlns:xlink="http://www.w3.org/1999/xlink" xml:space="preserve" xmlns:serif="http://www.serif.com/" style="fill-rule:evenodd;clip-rule:evenodd;stroke-miterlimit:10;"><rect id="notify" x="0" y="0" width="437.5" height="437.5" style="fill:none;"/><clipPath id="_clip1"><rect x="0" y="0" width="437.5" height="437.5"/></clipPath><g clip-path="url(#_clip1)"><g id="logo"><g><path d="M382.612,95.255c-24.55,-0.005 -44.462,19.902 -44.473,44.465c-0.006,24.546 19.926,44.469 44.473,44.465c24.558,0.012 44.471,-19.905 44.471,-44.47c-0.007,-24.557 -19.914,-44.468 -44.471,-44.46" style="fill:#0891d1;fill-rule:nonzero;"/><path d="M260.929,196.549c-24.541,-0.01 -44.456,19.906 -44.465,44.465c-0.015,24.549 19.91,44.476 44.465,44.465c24.563,0.012 44.481,-19.908 44.479,-44.468c-0.007,-24.552 -19.913,-44.472 -44.479,-44.462" style="fill:#0891d1;fill-rule:nonzero;"/><path d="M54.889,215.728c-24.539,0.008 -44.454,19.905 -44.472,44.477c0.013,24.547 19.907,44.476 44.472,44.463c24.567,0.021 44.484,-19.912 44.472,-44.477c-0.001,-24.566 -19.907,-44.476 -44.472,-44.463" style="fill:#0891d1;fill-rule:nonzero;"/><path d="M337.894,307.259c-24.553,-0.01 -44.455,19.918 -44.472,44.452c0,24.563 19.92,44.485 44.472,44.481c24.548,0.001 44.461,-19.908 44.472,-44.462c-0.005,-24.567 -19.91,-44.481 -44.472,-44.471" style="fill:#0891d1;fill-rule:nonzero;"/></g><g><path d="M401.711,217.846c0,-97.434 -79.104,-176.538 -176.538,-176.538c-97.434,0 -176.538,79.104 -176.538,176.538c0,97.434 79.104,176.538 176.538,176.538c97.434,0 176.538,-79.104 176.538,-176.538Z" style="fill:none;stroke:#0891d1;stroke-width:33.33px;"/><path d="M382.516,140.628l-121.575,101.243" style="fill:none;fill-rule:nonzero;stroke:#0891d1;stroke-width:33.33px;"/><path d="M337.822,352.51l-76.884,-110.638" style="fill:none;fill-rule:nonzero;stroke:#0891d1;stroke-width:33.33px;"/><path d="M54.984,261.031l205.954,-19.159" style="fill:none;fill-rule:nonzero;stroke:#0891d1;stroke-width:33.33px;"/></g></g><g id="icon"><path d="M416.667,204.167c0,-34.495 -28.006,-62.5 -62.5,-62.5l-125,0c-34.495,0 -62.5,28.005 -62.5,62.5l0,150c0,34.494 28.005,62.5 62.5,62.5l125,0c34.494,0 62.5,-28.006 62.5,-62.5l0,-150Z" style="fill:#fff;stroke:#000;stroke-width:16.67px;stroke-linecap:round;stroke-linejoin:round;stroke-miterlimit:1.5;"/><path d="M307.713,206.38c2.405,0 4.319,2.017 4.193,4.419l-4.109,78.386c-0.117,2.23 -1.959,3.979 -4.193,3.979l-23.874,0c-2.234,0 -4.077,-1.749 -4.194,-3.979l-4.109,-78.386c-0.126,-2.402 1.788,-4.419 4.194,-4.419l32.092,0m-16.046,100.781c12.349,0 22.395,10.047 22.395,22.396c0,12.349 -10.046,22.396 -22.395,22.396c-12.35,0 -22.396,-10.047 -22.396,-22.396c0,-12.349 10.046,-22.396 22.396,-22.396m16.046,-117.578l-32.092,0c-11.991,0 -21.598,10.073 -20.968,22.096l4.109,78.385c0.245,4.657 1.991,8.893 4.757,12.248c-6.834,7.058 -11.045,16.669 -11.045,27.245c0,21.611 17.582,39.193 39.193,39.193c21.611,0 39.192,-17.582 39.192,-39.193c0,-10.576 -4.211,-20.187 -11.044,-27.245c2.859,-3.465 4.528,-7.761 4.756,-12.248l4.109,-78.385c0.628,-11.975 -8.928,-22.096 -20.967,-22.096Z" style="fill-rule:nonzero;"/></g></g></svg>