<?xml version="1.0" encoding="UTF-8" standalone="no"?><!DOCTYPE svg PUBLIC "-//W3C//DTD SVG 1.1//EN" "http://www.w3.org/Graphics/SVG/1.1/DTD/svg11.dtd"><svg width="100%" height="100%" viewBox="0 0 438 438" version="1.1" xmlns="http://www.w3.org/2000/svg" xmlns:xlink="http://www.w3.org/1999/xlink" xml:space="preserve" xmlns:serif="http://www.serif.com/" style="fill-rule:evenodd;clip-rule:evenodd;stroke-miterlimit:10;"><rect id="syncing" x="0" y="0" width="437.5" height="437.5" style="fill:none;"/><clipPath id="_clip1"><rect x="0" y="0" width="437.5" height="437.5"/></clipPath><g clip-path="url(#_clip1)"><g id="logo"><g><path d="M382.612,95.255c-24.55,-0.005 -44.462,19.902 -44.473,44.465c-0.006,24.546 19.926,44.469 44.473,44.465c24.558,0.012 44.471,-19.905 44.471,-44.47c-0.007,-24.557 -19.914,-44.468 -44.471,-44.46" style="fill:#0891d1;fill-rule:nonzero;"/><path d="M260.929,196.549c-24.541,-0.01 -44.456,19.906 -44.465,44.465c-0.015,24.549 19.91,44.476 44.465,44.465c24.563,0.012 44.481,-19.908 44.479,-44.468c-0.007,-24.552 -19.913,-44.472 -44.479,-44.462" style="fill:#0891d1;fill-rule:nonzero;"/><path d="M54.889,215.728c-24.539,0.008 -44.454,19.905 -44.472,44.477c0.013,24.547 19.907,44.476 44.472,44.463c24.567,0.021 44.484,-19.912 44.472,-44.477c-0.001,-24.566 -19.907,-44.476 -44.472,-44.463" style="fill:#0891d1;fill-rule:nonzero;"/><path d="M337.894,307.259c-24.553,-0.01 -44.455,19.918 -44.472,44.452c0,24.563 19.92,44.485 44.472,44.481c24.548,0.001 44.461,-19.908 44.472,-44.462c-0.005,-24.567 -19.91,-44.481 -44.472,-44.471" style="fill:#0891d1;fill-rule:nonzero;"/></g><g><path d="M401.711,217.846c0,-97.434 -79.104,-176.538 -176.538,-176.538c-97.434,0 -176.538,79.104 -176.538,176.538c0,97.434 79.104,176.538 176.538,176.538c97.434,0 176.538,-79.104 176.538,-176.538Z" style="fill:none;stroke:#0891d1;stroke-width:33.33px;"/><path d="M382.516,140.628l-121.575,101.243" style="fill:none;fill-rule:nonzero;stroke:#0891d1;stroke-width:33.33px;"/><path d="M337.822,352.51l-76.884,-110.638" style="fill:none;fill-rule:nonzero;stroke:#0891d1;stroke-width:33.33px;"/><path d="M54.984,261.031l205.954,-19.159" style="fill:none;fill-rule:nonzero;stroke:#0891d1;stroke-width:33.33px;"/></g></g><g id="icon"><path d="M416.667,204.167c0,-34.495 -28.006,-62.5 -62.5,-62.5l-125,0c-34.495,0 -62.5,28.005 -62.5,62.5l0,150c0,34.494 28.005,62.5 62.5,62.5l125,0c34.494,0 62.5,-28.006 62.5,-62.5l0,-150Z" style="fill:#fff;stroke:#000;stroke-width:16.67px;stroke-linecap:round;stroke-linejoin:round;stroke-miterlimit:1.5;"/><path d="M373.85,196.983l-18.843,18.843c-16.21,-16.213 -38.602,-26.243 -63.34,-26.243c-47.961,0 -87.119,37.69 -89.472,85.066c-0.122,2.463 1.866,4.518 4.332,4.518l10.13,0c2.295,0 4.195,-1.789 4.325,-4.08c2.11,-37.227 32.92,-66.72 70.685,-66.72c19.565,0 37.262,7.919 50.07,20.729l-19.552,19.553c-2.731,2.731 -0.797,7.399 3.065,7.399l51.665,0c2.394,0 4.335,-1.94 4.335,-4.334l0,-51.666c0,-3.862 -4.669,-5.795 -7.4,-3.065Zm2.957,82.184l-10.131,0c-2.295,0 -4.195,1.788 -4.325,4.079c-2.11,37.227 -32.92,66.72 -70.684,66.72c-19.565,0 -37.263,-7.919 -50.071,-20.729l19.552,-19.552c2.731,-2.731 0.797,-7.4 -3.065,-7.4l-51.665,0c-2.394,0 -4.335,1.941 -4.335,4.335l0,51.665c0,3.862 4.67,5.796 7.4,3.065l18.843,-18.843c16.21,16.213 38.603,26.243 63.341,26.243c47.96,0 87.118,-37.689 89.471,-85.066c0.122,-2.462 -1.866,-4.517 -4.331,-4.517Z" style="fill-rule:nonzero;"/></g></g></svg>